<svg version="1.1" id="Layer_1" xmlns="http://www.w3.org/2000/svg" xmlns:xlink="http://www.w3.org/1999/xlink" x="0px" y="0px" viewBox="0 0 148.7 44.5" style="enable-background:new 0 0 148.7 44.5;" xml:space="preserve">
 <style type="text/css">
  .st0{fill-rule:evenodd;clip-rule:evenodd;fill:#17984A;}
	.st1{fill-rule:evenodd;clip-rule:evenodd;fill:#00A69C;}
	.st2{fill:#00A69C;}
 </style>
 <g>
  <g>
   <path class="st0" d="M28.8,20.5l-5.7,5.7c-0.3,0.3-0.6,0.5-1,0.5c0,0,0,0,0,0s0,0,0,0l-0.1,0h-0.2l-0.1,0c0,0,0,0-0.1,0h0
			c-0.3-0.1-0.6-0.2-0.9-0.5l-1.4-1.4l-3.5-3.5c-0.9-0.9-0.9-2.3,0-3.2c0.4-0.4,0.9-0.6,1.5-0.7h0.1c0.6,0,1.1,0.2,1.5,0.7l3,3
			l7.1-7.1c0,0,0,0,0.1,0c-2-1.8-4.5-2.7-7.2-2.7c-6,0-10.9,4.9-10.9,10.9c0,6,4.9,10.9,10.9,10.9c6,0,10.9-4.9,10.9-10.9
			c0-1.5-0.3-3.1-1-4.5L28.8,20.5">
   </path>
   <path class="st1" d="M23.8,44.5c-6,0.1-11.8-2-16.4-5.9C3.2,35,0.6,30,0.1,24.5c-0.5-5.7,1.1-11.4,4.6-15.9
			C8.1,4.1,13,1.2,18.5,0.3c1.3-0.2,2.7-0.3,4-0.3C28.4,0,33.9,2.3,38,6.5c0.9,0.8,1.3,2.1,1,3.4c-0.5,1.5-1.8,2.5-3.4,2.5
			c-1.1-0.1-2.1-0.6-2.8-1.4c-2.9-2.7-6.6-4.2-10.5-4.2c-4.7,0-9.1,2.1-12,5.8c-5,6.2-4.4,15.2,1.3,20.7c2.9,2.8,6.7,4.3,10.7,4.3
			c3.8,0,7.5-1.4,10.3-4c0.8-0.9,1.8-1.4,3-1.5c0.3,0,0.5,0,0.8,0.1c1.3,0.2,2.3,1.2,2.6,2.4c0.3,1.2,0,2.5-0.9,3.3
			C34.3,41.9,29.2,44.2,23.8,44.5">
   </path>
  </g>
  <path class="st2" d="M57.7,16.4l-2.3,2.8c-1.1-1.3-2.7-2.2-4.5-2.2c-2.9,0-5.3,2.4-5.3,5.3s2.4,5.3,5.3,5.3c1.7-0.1,3.3-0.8,4.5-2
		l2.3,2.5c-1.8,1.9-4.3,3-7,3.1c-4.8,0.2-8.9-3.6-9.1-8.5c0-0.1,0-0.2,0-0.3c0-5,4-8.8,9.2-8.8C53.4,13.5,55.9,14.5,57.7,16.4
		 M63.2,27.5l-1.4,3.4h-4l7.5-17.3h4l7.4,17.3h-4.2l-1.4-3.4H63.2z M67.3,17.7l-2.7,6.7H70L67.3,17.7z M91.3,15.3l-1.5,3.2
		c-1.6-1-3.5-1.6-5.4-1.8c-1.3,0-2.2,0.5-2.2,1.4c0,3.2,9.2,1.4,9.2,7.6c0,3.4-2.9,5.2-6.8,5.2c-2.8,0-5.5-1-7.6-2.7l1.5-3.2
		c1.7,1.5,3.9,2.4,6.1,2.6c1.6,0,2.6-0.6,2.6-1.6c0-3.3-9.2-1.4-9.2-7.5c0-3.1,2.7-5.1,6.7-5.1C87.1,13.4,89.4,14,91.3,15.3
		 M105.9,30.9v-6.8h-7.8v6.8h-3.9V13.6h3.9v7.2h7.8v-7.2h3.9v17.3L105.9,30.9z M112.1,13.6h3.8v17.2h-3.8V13.6z M118.2,30.9h3.8
		v-6.4h6.8v-3.8H122v-3.3h7.7v-3.8h-11.5L118.2,30.9z M144.2,13.6l-4.4,6.7l-4.4-6.7h-4.6l7.1,10.8v6.5h3.8v-6.5l7-10.7H144.2z">
  </path>
 </g>
</svg>